<svg id="Calque_2" data-name="Calque 2" xmlns="http://www.w3.org/2000/svg" viewBox="0 0 433.71 406.2"><defs><style>.cls-1{fill:#6a563d;}.cls-2{fill:#816749;}.cls-3{fill:#fdd9aa;}.cls-4{fill:#fbc277;}</style></defs><circle class="cls-1" cx="147.87" cy="144.57" r="137.11"/><path class="cls-2" d="M127.19,246.21A137.11,137.11,0,0,1,264.3,109.11a139.12,139.12,0,0,1,15.9.92A137.12,137.12,0,1,0,131.46,280.27,137.06,137.06,0,0,1,127.19,246.21Z"/><circle class="cls-3" cx="290.34" cy="261.53" r="137.11"/><path class="cls-4" d="M388.74,166.08A137.11,137.11,0,0,1,174.07,334.52,137.11,137.11,0,1,0,388.74,166.08Z"/><circle class="cls-1" cx="200.47" cy="31.74" r="25.79"/><circle class="cls-1" cx="96.3" cy="84.85" r="25.79"/><circle class="cls-1" cx="83.53" cy="247.74" r="25.79"/><circle class="cls-1" cx="279.11" cy="137.96" r="25.79"/><circle class="cls-1" cx="227.02" cy="249.79" r="25.79"/><circle class="cls-1" cx="279.11" cy="335.06" r="25.79"/><circle class="cls-1" cx="378.17" cy="347.32" r="25.79"/><circle class="cls-1" cx="298.77" cy="260.77" r="19.4"/><circle class="cls-1" cx="358.26" cy="221.19" r="19.4"/><circle class="cls-1" cx="95.79" cy="162.98" r="19.4"/><circle class="cls-1" cx="182.09" cy="96.09" r="19.4"/></svg>