<?xml version="1.0" encoding="UTF-8" standalone="no"?>
<svg
   xmlns:dc="http://purl.org/dc/elements/1.1/"
   xmlns:cc="http://creativecommons.org/ns#"
   xmlns:rdf="http://www.w3.org/1999/02/22-rdf-syntax-ns#"
   xmlns:svg="http://www.w3.org/2000/svg"
   xmlns="http://www.w3.org/2000/svg"
   xmlns:sodipodi="http://sodipodi.sourceforge.net/DTD/sodipodi-0.dtd"
   xmlns:inkscape="http://www.inkscape.org/namespaces/inkscape"
   sodipodi:docname="ecranStat.svg"
   inkscape:version="1.0 (4035a4fb49, 2020-05-01)"
   inkscape:export-ydpi="399"
   inkscape:export-xdpi="399"
   inkscape:export-filename="C:\Users\jemla\Desktop\ecranStat.png"
   id="svg8"
   version="1.1"
   viewBox="0 0 59.267879 52.908806"
   height="52.908806mm"
   width="59.267879mm">
  <defs
     id="defs2" />
  <sodipodi:namedview
     inkscape:window-maximized="1"
     inkscape:window-y="1791"
     inkscape:window-x="926"
     inkscape:window-height="1001"
     inkscape:window-width="1920"
     showgrid="false"
     inkscape:document-rotation="0"
     inkscape:current-layer="layer1"
     inkscape:document-units="mm"
     inkscape:cy="120.31227"
     inkscape:cx="130.03447"
     inkscape:zoom="1.979899"
     inkscape:pageshadow="2"
     inkscape:pageopacity="0.0"
     borderopacity="1.0"
     bordercolor="#666666"
     pagecolor="#ffffff"
     id="base" />
  <metadata
     id="metadata5">
    <rdf:RDF>
      <cc:Work
         rdf:about="">
        <dc:format>image/svg+xml</dc:format>
        <dc:type
           rdf:resource="http://purl.org/dc/dcmitype/StillImage" />
        <dc:title></dc:title>
      </cc:Work>
    </rdf:RDF>
  </metadata>
  <g
     transform="translate(-55.069238,-83.725187)"
     id="layer1"
     inkscape:groupmode="layer"
     inkscape:label="Calque 1">
    <path
       id="path847"
       d="m 72.826567,136.24614 c -0.703372,-0.38985 -1.328329,-1.36327 -1.342664,-2.09131 -0.01559,-0.79182 0.702363,-1.91507 1.43844,-2.25045 0.381561,-0.17385 1.154531,-0.31609 1.71771,-0.31609 1.007996,0 1.028088,-0.0196 1.288859,-1.25677 0.145696,-0.69123 0.347676,-1.82232 0.448842,-2.51355 0.183941,-1.25677 0.183941,-1.25677 -2.605328,-1.25677 -2.897718,0 -3.790326,-0.30873 -3.450789,-1.19355 0.126965,-0.33086 3.024929,-0.39437 20.779938,-0.45536 20.285245,-0.0697 20.638915,-0.0798 21.019375,-0.60005 0.49401,-0.67552 0.7286,-1.60667 0.53313,-2.11607 -0.13434,-0.35008 -3.46686,-0.39747 -27.950386,-0.39747 -24.48352,0 -27.816042,0.0474 -27.950379,0.39747 -0.195382,0.50916 0.039,1.44023 0.532691,2.11607 0.358536,0.49083 0.743837,0.53516 5.3178,0.61184 4.20301,0.0705 4.954979,0.14448 5.091895,0.50128 0.351627,0.91632 -0.630012,1.13584 -5.079222,1.13584 -3.896355,0 -4.357845,-0.0507 -5.419957,-0.59531 -2.246353,-1.15187 -2.126161,0.0225 -2.126161,-20.77416 0,-19.850582 -0.03592,-19.335116 1.442331,-20.699274 0.716778,-0.661459 0.716778,-0.661459 19.973575,-0.732627 17.517568,-0.06474 19.289068,-0.03228 19.614098,0.35936 0.30545,0.368038 0.28421,0.48398 -0.14629,0.798773 -0.41909,0.306444 -3.66674,0.368244 -19.351539,0.368244 -18.847934,0 -18.847934,0 -19.396305,0.69714 -0.541667,0.688618 -0.54837,0.902067 -0.54837,17.462494 0,16.76536 0,16.76536 28.045833,16.76536 28.045836,0 28.045836,0 28.045836,-16.76536 0,-16.560427 -0.007,-16.773876 -0.54837,-17.462494 -0.54837,-0.69714 -0.54837,-0.69714 -6.71448,-0.69714 -5.1582,0 -6.219945,-0.06487 -6.495485,-0.396875 -0.26325,-0.317199 -0.26111,-0.479136 0.0107,-0.806623 0.29336,-0.353478 1.221495,-0.398896 6.758475,-0.330729 6.41841,0.07902 6.41841,0.07902 7.13476,0.740477 1.47779,1.364539 1.44191,0.849459 1.44191,20.699274 0,17.37965 -0.0257,18.38306 -0.49294,19.25693 -0.27112,0.50706 -0.8962,1.16004 -1.38907,1.45108 -0.84306,0.49784 -1.44993,0.53384 -10.25081,0.60805 -9.354695,0.0789 -9.354695,0.0789 -9.172665,1.32291 0.10011,0.68423 0.30123,1.80959 0.44693,2.50082 0.26077,1.23718 0.28086,1.25677 1.28886,1.25677 0.56318,0 1.33615,0.14224 1.71771,0.31609 0.71078,0.32385 1.44781,1.4425 1.44781,2.19745 0,0.75495 -0.73703,1.87359 -1.44781,2.19744 -1.04954,0.47821 -22.787914,0.42939 -23.658478,-0.0531 z m 23.272618,-1.63732 c 0.25201,-0.30366 0.27139,-0.54045 0.0704,-0.8599 -0.22667,-0.36021 -0.80459,-0.45278 -3.15965,-0.50609 -3.52152,-0.0797 -4.07287,-0.19309 -4.07287,-0.83753 0,-0.61367 0.49928,-0.81701 2.00602,-0.81701 0.64294,0 1.16898,-0.0377 1.16898,-0.0837 0,-0.046 -0.121,-0.79018 -0.26889,-1.65365 -0.14789,-0.86347 -0.33188,-1.9569 -0.40887,-2.42984 -0.13997,-0.8599 -0.13997,-0.8599 -6.730571,-0.8599 -6.590604,0 -6.590604,0 -6.730574,0.8599 -0.07699,0.47294 -0.260974,1.56637 -0.408866,2.42984 -0.147891,0.86347 -0.268893,1.60473 -0.268893,1.64725 0,0.0425 1.994296,0.10995 4.43177,0.14984 4.431771,0.0725 4.431771,0.0725 4.431771,0.73401 0,0.66145 0,0.66145 -6.321494,0.79375 -5.520523,0.11553 -6.356685,0.18814 -6.59924,0.57313 -0.201411,0.31968 -0.182162,0.55602 0.07004,0.8599 0.30716,0.3701 1.638223,0.41905 11.39549,0.41905 9.757267,0 11.088327,-0.0489 11.395487,-0.41905 z m 0.31915,-18.5648 c -0.27073,-0.40019 -1.14204,-2.00731 -1.93625,-3.57138 -0.79421,-1.56407 -1.50851,-2.84399 -1.58734,-2.84427 -0.0788,-2.6e-4 -0.46675,0.65897 -0.86205,1.46498 -0.71874,1.46548 -0.71874,1.46548 -3.03168,1.38906 -2.111085,-0.0697 -2.312946,-0.1226 -2.312946,-0.60558 0,-0.46928 0.202491,-0.53803 1.789099,-0.60747 1.789097,-0.0783 1.789097,-0.0783 2.855717,-2.19972 1.49455,-2.97251 1.69679,-2.89133 3.94987,1.58532 1.26166,2.50682 1.85078,3.43687 2.0176,3.18523 0.1296,-0.19547 1.12921,-2.08642 2.22137,-4.20209 1.550395,-3.00335 2.101465,-3.84669 2.513545,-3.84669 0.40118,0 0.8552,0.63475 1.89249,2.64583 1.36468,2.64584 1.36468,2.64584 3.175,2.77813 1.58983,0.11618 1.81031,0.19674 1.81031,0.66146 0,0.48287 -0.20183,0.53584 -2.30703,0.60549 -2.30703,0.0763 -2.30703,0.0763 -3.37639,-2.05052 -0.58815,-1.16976 -1.12681,-2.12685 -1.19704,-2.12685 -0.0702,0 -1.03595,1.81571 -2.146055,4.0349 -2.41022,4.81823 -2.5869,5.00693 -3.46822,3.70417 z M 60.46257,114.53533 c -0.325613,-0.84853 0.187286,-0.93871 5.339031,-0.93871 5.14376,0 5.14376,0 5.14376,0.66146 0,0.66146 0,0.66146 -5.167679,0.66146 -4.273675,0 -5.193184,-0.0665 -5.315112,-0.38421 z m 0.07585,-4.2901 c -0.327059,-0.32706 -0.179592,-1.08868 0.242125,-1.25051 0.230184,-0.0883 4.859042,-0.1606 10.286353,-0.1606 8.41108,0 9.916051,0.0581 10.194419,0.39351 0.17962,0.21642 0.257466,0.57361 0.172992,0.79375 -0.13345,0.34776 -1.50174,0.40024 -10.436544,0.40024 -5.655626,0 -10.362331,-0.0794 -10.459345,-0.17639 z m -0.08071,-4.7184 c -0.36575,-0.95313 0.08204,-1.19063 2.244869,-1.19063 1.537287,0 2.179977,0.10532 2.421951,0.39688 0.26278,0.31663 0.26278,0.47712 0,0.79375 -0.241974,0.29156 -0.884664,0.39687 -2.421951,0.39687 -1.61599,0 -2.127259,-0.0904 -2.244869,-0.39687 z m 7.580033,0.003 c -0.17962,-0.21643 -0.257466,-0.57362 -0.172993,-0.79375 0.230938,-0.60182 13.338622,-0.60182 13.569558,0 0.08447,0.22013 0.0066,0.57732 -0.172992,0.79375 -0.485963,0.58555 -12.737612,0.58555 -13.223573,0 z m 18.835536,-2.8344 c -0.224298,-0.2243 -0.3175,-1.76936 -0.3175,-5.263356 0,-4.265905 0.05754,-4.967942 0.418515,-5.106462 0.780071,-0.299343 5.017441,-0.175058 5.349401,0.156901 0.22356,0.223555 0.3175,1.73449 0.3175,5.106461 0,3.371956 -0.0939,4.882896 -0.3175,5.106456 -0.20043,0.20042 -1.20533,0.3175 -2.72521,0.3175 -1.519881,0 -2.524782,-0.11708 -2.725206,-0.3175 z m 4.180416,-5.106456 c 0,-3.836461 0,-3.836461 -1.45521,-3.836461 -1.455206,0 -1.455206,0 -1.455206,3.836461 0,3.836446 0,3.836446 1.455206,3.836446 1.45521,0 1.45521,0 1.45521,-3.836446 z m 3.97806,4.912176 c -0.3224,-0.60239 -0.36474,-6.872896 -0.0498,-7.369326 0.15886,-0.250378 0.94543,-0.320391 2.97252,-0.26458 2.756485,0.07589 2.756485,0.07589 2.830295,3.74372 0.0499,2.479016 -0.0249,3.786796 -0.23084,4.034896 -0.22001,0.2651 -0.991275,0.36707 -2.776475,0.36707 -2.17305,0 -2.50495,-0.0619 -2.74573,-0.51178 z m 4.22402,-3.735386 c 0,-2.65966 0,-2.65966 -1.38906,-2.57968 -1.38906,0.08 -1.38906,0.08 -1.46479,2.65966 -0.0757,2.579676 -0.0757,2.579676 1.38906,2.579676 1.46479,0 1.46479,0 1.46479,-2.659656 z m 4.167195,3.961386 c -0.41966,-0.24443 -0.46302,-0.83752 -0.46302,-6.332646 0,-5.723478 0.0286,-6.078293 0.51177,-6.336849 0.72234,-0.386586 4.86028,-0.352255 5.25614,0.04361 0.2287,0.228692 0.3175,2.033941 0.3175,6.453989 0,5.351586 -0.0535,6.157016 -0.41851,6.297076 -0.6854,0.26301 -4.70334,0.16636 -5.20388,-0.12518 z m 4.03489,-6.342636 c 0,-5.040905 0,-5.040905 -1.38906,-4.960933 -1.38906,0.07997 -1.38906,0.07997 -1.46105,5.040913 -0.072,4.960926 -0.072,4.960926 1.38907,4.960926 1.46104,0 1.46104,0 1.46104,-5.040906 z m -46.602805,4.711436 c -0.318083,-0.11782 -0.49635,-0.38402 -0.442955,-0.66145 0.08311,-0.43184 0.815316,-0.469116 10.477807,-0.533506 9.261651,-0.0617 10.405839,-0.0239 10.548751,0.348516 0.08817,0.22975 0.05092,0.52711 -0.08277,0.6608 -0.292804,0.29281 -19.736214,0.46888 -20.500836,0.18564 z m -0.188329,-5.196386 c -0.196219,-0.12434 -0.313709,-0.44994 -0.261088,-0.72355 0.0901,-0.468495 0.474648,-0.501576 6.604449,-0.568149 5.554756,-0.06033 6.557606,-0.01185 6.841922,0.330729 0.265959,0.32046 0.266721,0.48146 0.0038,0.79829 -0.275955,0.33251 -1.343295,0.39622 -6.580835,0.39283 -3.438314,-0.002 -6.412013,-0.1058 -6.608232,-0.23015 z m 16.102267,-0.15931 c -0.179621,-0.21643 -0.257466,-0.57361 -0.172993,-0.793747 0.120552,-0.314151 0.640916,-0.400244 2.419154,-0.400244 1.778238,0 2.298602,0.08609 2.419154,0.400244 0.317506,0.827407 -0.415718,1.187257 -2.419154,1.187257 -1.376211,0 -2.012026,-0.11139 -2.246161,-0.39351 z M 60.456415,90.971378 c -0.08447,-0.220134 -0.0066,-0.577322 0.172993,-0.79375 0.278337,-0.335376 1.780014,-0.393506 10.165488,-0.393506 10.330702,0 11.06454,0.07938 10.652798,1.152365 -0.151005,0.393516 -1.155525,0.435135 -10.502333,0.435135 -8.981579,0 -10.355475,-0.05243 -10.488946,-0.400244 z"
       style="fill:#006392;fill-opacity:1;stroke-width:0.264583" />
  </g>
</svg>
