<?xml version="1.0" encoding="utf-8"?>
<!-- Generator: Adobe Illustrator 24.3.0, SVG Export Plug-In . SVG Version: 6.00 Build 0)  -->
<svg version="1.1" id="Calque_1" xmlns="http://www.w3.org/2000/svg" xmlns:xlink="http://www.w3.org/1999/xlink" x="0px" y="0px"
	 viewBox="0 0 127.8 66.7" style="enable-background:new 0 0 127.8 66.7;" xml:space="preserve">
<style type="text/css">
	.st0{fill:#75C9DA;}
	.st1{fill:#78C8D5;}
	.st2{fill:#FEFFFF;}
</style>
<g>
	<g>
		<g>
			<path class="st0" d="M0,34.6h1v2.8c1.1-2.1,2.8-3.1,5.2-3.1c2.7,0,4.4,1.1,5,3.4c1.2-2.3,3-3.4,5.5-3.4c3.5,0,5.3,2,5.3,6v11.1
				h-1V41.3c0-1.9-0.2-3.2-0.5-3.9c-0.6-1.4-1.9-2.2-3.8-2.2c-2,0-3.4,0.7-4.2,2.2c-0.6,1.1-0.9,2.8-0.9,5v9.1h-1V41.3
				c0-1.9-0.2-3.2-0.5-3.9c-0.6-1.4-1.9-2.2-3.8-2.2c-2.9,0-4.5,1.4-5,4.3c0,0.3-0.1,0.7-0.1,1.2c0,0.5,0,1,0,1.7v9.1H0V34.6z"/>
			<path class="st0" d="M33.1,51.8c-2.4,0-4.3-0.9-5.7-2.6c-1.2-1.6-1.7-3.6-1.7-6.2c0-2.6,0.6-4.6,1.7-6.2c1.3-1.7,3.2-2.6,5.7-2.6
				c3.1,0,5.2,1.4,6.3,4.2v-3.9h1v16.8h-1v-3.6C38.4,50.5,36.2,51.8,33.1,51.8z M28.2,48.5c1.1,1.6,2.8,2.4,4.9,2.4
				c2.2,0,3.8-0.8,4.9-2.4c1-1.4,1.5-3.2,1.5-5.5c0-2.2-0.5-4.1-1.5-5.5c-1.1-1.6-2.7-2.4-4.9-2.4c-2.2,0-3.8,0.8-4.9,2.4
				c-1,1.4-1.5,3.2-1.5,5.5C26.7,45.3,27.2,47.2,28.2,48.5z"/>
			<path class="st0" d="M44.9,34.6h1v2.8c0.9-1.8,2.7-2.7,5.6-2.7l-0.6,0.9c-0.8,0-1.4,0.1-1.7,0.2c-0.7,0.2-1.5,0.8-2.3,1.7
				c-0.6,0.7-0.9,1.7-0.9,2.8v11.2h-1V34.6z"/>
			<path class="st0" d="M53.5,28.2h1v16l9.7-9.6h1.3l-6.1,6.1l7.1,10.7h-1.2l-6.6-10l-4.1,4v6h-1V28.2z"/>
			<path class="st0" d="M74.5,51.8c-2.4,0-4.2-0.9-5.5-2.7c-1.1-1.6-1.7-3.6-1.7-6.1c0-2.5,0.6-4.5,1.7-6.1c1.3-1.8,3.1-2.7,5.5-2.7
				c2.4,0,4.1,0.8,5.4,2.4c1.1,1.4,1.7,3.4,1.7,5.8v0.6H68.5v0.3c0,2.1,0.5,3.8,1.5,5.2c1.1,1.6,2.6,2.4,4.6,2.4
				c2.7,0,4.6-1.3,5.5-3.8l0.8,0.5c-0.4,1.1-1.1,2.1-2,2.8C77.7,51.4,76.2,51.8,74.5,51.8z M80.5,42.2c0-2-0.5-3.6-1.4-4.9
				c-1-1.4-2.5-2.2-4.4-2.2c-1.9,0-3.5,0.7-4.6,2.1c-1,1.3-1.5,2.9-1.7,4.9H80.5z"/>
			<path class="st0" d="M85.5,30v4.6h3.4v0.9h-3.4v15.9h-1V30H85.5z"/>
			<path class="st0" d="M91.3,34.6h1v16.8h-1V34.6z"/>
			<path class="st0" d="M96.9,34.6h1v2.8c1.1-2.1,2.9-3.1,5.7-3.1c3.8,0,5.8,2,5.8,6v11.1h-1V40.6c0-1.8-0.3-3.1-1-3.9
				c-0.8-1-2-1.5-3.7-1.5c-3.2,0-5,1.4-5.5,4.3c0,0.3-0.1,0.7-0.1,1.2c0,0.5,0,1.1,0,1.7v9h-1V34.6z"/>
			<path class="st0" d="M120.4,51.9c-2.5,0-4.3-0.9-5.6-2.6c-1.1-1.6-1.7-3.7-1.7-6.2c0-2.6,0.6-4.6,1.7-6.2
				c1.3-1.7,3.2-2.6,5.7-2.6c1.4,0,2.7,0.3,3.9,1c1.1,0.7,2,1.7,2.5,3.1v-3.8h1v15.9c0,2.1-0.4,3.7-1.1,4.7
				c-1.3,1.9-3.6,2.9-6.7,2.9c-1.7,0-3.2-0.4-4.3-1.1c-1.3-0.9-1.9-2.1-2-3.8h1c0.1,1.4,0.7,2.5,1.8,3.2c1,0.6,2.2,0.9,3.7,0.9
				c2.8,0,4.7-0.9,5.8-2.8c0.5-0.9,0.7-2.5,0.7-4.9v-1.7C125.6,50.5,123.5,51.9,120.4,51.9z M125.3,37.6c-1.1-1.6-2.7-2.4-4.9-2.4
				c-2.2,0-3.8,0.8-4.9,2.4c-1,1.4-1.5,3.2-1.5,5.5c0,2.3,0.5,4.1,1.5,5.5c1.1,1.6,2.8,2.4,4.9,2.4c2.2,0,3.8-0.8,4.9-2.4
				c1-1.4,1.5-3.2,1.5-5.5C126.8,40.8,126.3,39,125.3,37.6z"/>
		</g>
		<g>
			<path class="st1" d="M0,34.6h1v2.8c1.1-2.1,2.8-3.1,5.2-3.1c2.7,0,4.4,1.1,5,3.4c1.2-2.3,3-3.4,5.5-3.4c3.5,0,5.3,2,5.3,6v11.1
				h-1V41.3c0-1.9-0.2-3.2-0.5-3.9c-0.6-1.4-1.9-2.2-3.8-2.2c-2,0-3.4,0.7-4.2,2.2c-0.6,1.1-0.9,2.8-0.9,5v9.1h-1V41.3
				c0-1.9-0.2-3.2-0.5-3.9c-0.6-1.4-1.9-2.2-3.8-2.2c-2.9,0-4.5,1.4-5,4.3c0,0.3-0.1,0.7-0.1,1.2c0,0.5,0,1,0,1.7v9.1H0V34.6z"/>
			<path class="st1" d="M33.1,51.8c-2.4,0-4.3-0.9-5.7-2.6c-1.2-1.6-1.7-3.6-1.7-6.2c0-2.6,0.6-4.6,1.7-6.2c1.3-1.7,3.2-2.6,5.7-2.6
				c3.1,0,5.2,1.4,6.3,4.2v-3.9h1v16.8h-1v-3.6C38.4,50.5,36.2,51.8,33.1,51.8z M28.2,48.5c1.1,1.6,2.8,2.4,4.9,2.4
				c2.2,0,3.8-0.8,4.9-2.4c1-1.4,1.5-3.2,1.5-5.5c0-2.2-0.5-4.1-1.5-5.5c-1.1-1.6-2.7-2.4-4.9-2.4c-2.2,0-3.8,0.8-4.9,2.4
				c-1,1.4-1.5,3.2-1.5,5.5C26.7,45.3,27.2,47.2,28.2,48.5z"/>
			<path class="st1" d="M44.9,34.6h1v2.8c0.9-1.8,2.7-2.7,5.6-2.7l-0.6,0.9c-0.8,0-1.4,0.1-1.7,0.2c-0.7,0.2-1.5,0.8-2.3,1.7
				c-0.6,0.7-0.9,1.7-0.9,2.8v11.2h-1V34.6z"/>
			<path class="st1" d="M53.5,28.2h1v16l9.7-9.6h1.3l-6.1,6.1l7.1,10.7h-1.2l-6.6-10l-4.1,4v6h-1V28.2z"/>
			<path class="st1" d="M74.5,51.8c-2.4,0-4.2-0.9-5.5-2.7c-1.1-1.6-1.7-3.6-1.7-6.1c0-2.5,0.6-4.5,1.7-6.1c1.3-1.8,3.1-2.7,5.5-2.7
				c2.4,0,4.1,0.8,5.4,2.4c1.1,1.4,1.7,3.4,1.7,5.8v0.6H68.5v0.3c0,2.1,0.5,3.8,1.5,5.2c1.1,1.6,2.6,2.4,4.6,2.4
				c2.7,0,4.6-1.3,5.5-3.8l0.8,0.5c-0.4,1.1-1.1,2.1-2,2.8C77.7,51.4,76.2,51.8,74.5,51.8z M80.5,42.2c0-2-0.5-3.6-1.4-4.9
				c-1-1.4-2.5-2.2-4.4-2.2c-1.9,0-3.5,0.7-4.6,2.1c-1,1.3-1.5,2.9-1.7,4.9H80.5z"/>
			<path class="st1" d="M85.5,30v4.6h3.4v0.9h-3.4v15.9h-1V30H85.5z"/>
			<path class="st1" d="M91.3,34.6h1v16.8h-1V34.6z"/>
			<path class="st1" d="M96.9,34.6h1v2.8c1.1-2.1,2.9-3.1,5.7-3.1c3.8,0,5.8,2,5.8,6v11.1h-1V40.6c0-1.8-0.3-3.1-1-3.9
				c-0.8-1-2-1.5-3.7-1.5c-3.2,0-5,1.4-5.5,4.3c0,0.3-0.1,0.7-0.1,1.2c0,0.5,0,1.1,0,1.7v9h-1V34.6z"/>
			<path class="st1" d="M120.4,51.9c-2.5,0-4.3-0.9-5.6-2.6c-1.1-1.6-1.7-3.7-1.7-6.2c0-2.6,0.6-4.6,1.7-6.2
				c1.3-1.7,3.2-2.6,5.7-2.6c1.4,0,2.7,0.3,3.9,1c1.1,0.7,2,1.7,2.5,3.1v-3.8h1v15.9c0,2.1-0.4,3.7-1.1,4.7
				c-1.3,1.9-3.6,2.9-6.7,2.9c-1.7,0-3.2-0.4-4.3-1.1c-1.3-0.9-1.9-2.1-2-3.8h1c0.1,1.4,0.7,2.5,1.8,3.2c1,0.6,2.2,0.9,3.7,0.9
				c2.8,0,4.7-0.9,5.8-2.8c0.5-0.9,0.7-2.5,0.7-4.9v-1.7C125.6,50.5,123.5,51.9,120.4,51.9z M125.3,37.6c-1.1-1.6-2.7-2.4-4.9-2.4
				c-2.2,0-3.8,0.8-4.9,2.4c-1,1.4-1.5,3.2-1.5,5.5c0,2.3,0.5,4.1,1.5,5.5c1.1,1.6,2.8,2.4,4.9,2.4c2.2,0,3.8-0.8,4.9-2.4
				c1-1.4,1.5-3.2,1.5-5.5C126.8,40.8,126.3,39,125.3,37.6z"/>
		</g>
	</g>
	<path class="st2" d="M3.6,7.6h1v3.9c1.1-2.8,3.2-4.2,6.4-4.2c2.5,0,4.4,0.9,5.7,2.6c1.2,1.6,1.8,3.6,1.8,6.2c0,2.6-0.6,4.6-1.8,6.2
		c-1.3,1.7-3.3,2.6-5.7,2.6c-3.2,0-5.3-1.4-6.4-4.1v10.3h-1V7.6z M6.1,21.6c1.1,1.6,2.8,2.4,4.9,2.4c2.2,0,3.8-0.8,5-2.4
		c1-1.4,1.5-3.2,1.5-5.5c0-2.3-0.5-4.1-1.5-5.5c-1.2-1.6-2.8-2.4-5-2.4c-2.2,0-3.8,0.8-4.9,2.4c-1,1.4-1.5,3.3-1.5,5.5
		C4.7,18.4,5.2,20.2,6.1,21.6z"/>
	<path class="st2" d="M28.6,24.9c-2.4,0-4.3-0.9-5.5-2.7c-1.1-1.6-1.7-3.6-1.7-6.2c0-2.5,0.6-4.6,1.7-6.1c1.3-1.8,3.1-2.7,5.5-2.7
		C31,7.2,32.8,8,34,9.7c1.1,1.5,1.7,3.4,1.7,5.9v0.6H22.5v0.3c0,2.1,0.5,3.8,1.5,5.2c1.1,1.6,2.7,2.4,4.6,2.4c2.7,0,4.6-1.3,5.6-3.9
		l0.8,0.5c-0.4,1.2-1.1,2.1-2.1,2.8C31.8,24.4,30.3,24.9,28.6,24.9z M34.6,15.2c0-2-0.5-3.6-1.4-4.9c-1-1.5-2.5-2.2-4.4-2.2
		c-2,0-3.5,0.7-4.6,2.1c-1,1.3-1.5,2.9-1.7,5H34.6z"/>
	<path class="st1" d="M39.6,0.4h1v3.9C41.7,1.4,43.9,0,47,0c2.5,0,4.4,0.9,5.7,2.6c1.2,1.6,1.8,3.6,1.8,6.2c0,2.6-0.6,4.6-1.8,6.2
		c-1.3,1.7-3.3,2.6-5.7,2.6c-3.2,0-5.3-1.4-6.4-4.1v12.9h-1V0.4z M42.1,14.4c1.1,1.6,2.8,2.4,4.9,2.4c2.2,0,3.8-0.8,5-2.4
		c1-1.4,1.5-3.2,1.5-5.5c0-2.3-0.5-4.1-1.5-5.5c-1.2-1.6-2.8-2.4-5-2.4c-2.2,0-3.8,0.8-4.9,2.4c-1,1.4-1.5,3.3-1.5,5.5
		C40.6,11.2,41.1,13,42.1,14.4z"/>
	<path class="st2" d="M53.4,9.4h1v3.9c1.1-2.8,3.2-4.2,6.4-4.2c2.5,0,4.4,0.9,5.7,2.6c1.2,1.6,1.8,3.6,1.8,6.2
		c0,2.6-0.6,4.6-1.8,6.2c-1.3,1.7-3.3,2.6-5.7,2.6c-3.2,0-5.3-1.4-6.4-4.1v44h-1V9.4z M56,23.4c1.1,1.6,2.8,2.4,4.9,2.4
		s3.8-0.8,5-2.4c1-1.4,1.5-3.2,1.5-5.5c0-2.3-0.5-4.1-1.5-5.5c-1.2-1.6-2.8-2.4-5-2.4c-2.2,0-3.8,0.8-4.9,2.4
		c-1,1.4-1.5,3.3-1.5,5.5C54.5,20.2,55,22,56,23.4z"/>
	<path class="st1" d="M78.4,24.9c-2.4,0-4.3-0.9-5.5-2.7c-1.1-1.6-1.7-3.6-1.7-6.2c0-2.5,0.6-4.6,1.7-6.1c1.3-1.8,3.1-2.7,5.5-2.7
		c2.4,0,4.2,0.8,5.4,2.4c1.1,1.5,1.7,3.4,1.7,5.9v0.6H72.3v0.3c0,2.1,0.5,3.8,1.5,5.2c1.1,1.6,2.7,2.4,4.6,2.4
		c2.7,0,4.6-1.3,5.6-3.9l0.8,0.5c-0.4,1.2-1.1,2.1-2.1,2.8C81.6,24.4,80.1,24.9,78.4,24.9z M84.4,15.2c0-2-0.5-3.6-1.4-4.9
		c-1-1.5-2.5-2.2-4.4-2.2c-2,0-3.5,0.7-4.6,2.1c-1,1.3-1.5,2.9-1.7,5H84.4z"/>
	<path class="st2" d="M89.2,7.6h1v2.8c0.9-1.8,2.7-2.8,5.6-2.7l-0.7,0.9c-0.8,0-1.4,0.1-1.7,0.2c-0.7,0.2-1.5,0.8-2.3,1.7
		c-0.6,0.7-0.9,1.7-0.9,2.8v11.3h-1V7.6z"/>
	<path class="st2" d="M103.6,24c1.4,0,2.5-0.3,3.4-0.9c1.1-0.7,1.6-1.7,1.6-3c0-1.6-1.1-2.7-3.4-3.3c-0.1,0-0.2-0.1-0.3-0.1
		c-0.1,0-0.3-0.1-0.6-0.1c-2.8-0.7-4.5-1.4-5.4-2c-0.9-0.7-1.4-1.7-1.4-2.9c0-1.5,0.6-2.6,1.9-3.4c1.1-0.7,2.4-1,3.9-1
		c1.6,0,2.9,0.4,3.9,1.2c1,0.9,1.7,2.1,1.8,3.6h-1c-0.3-2.6-2-3.9-4.8-3.9c-1.2,0-2.2,0.3-3.1,0.8c-1,0.6-1.5,1.5-1.5,2.6
		c0,1.7,1.7,3,5.2,3.9c0,0,0.2,0.1,0.3,0.1c1.8,0.5,3,0.9,3.7,1.4c1.2,0.8,1.7,1.8,1.7,3.3c0,1.5-0.6,2.7-1.9,3.6
		c-1.2,0.8-2.5,1.1-4.1,1.1c-1.8,0-3.3-0.4-4.4-1.3c-1.2-1-1.9-2.3-2-4.1h1C98.7,22.5,100.5,24,103.6,24z"/>
	<path class="st1" d="M66.6,11.7c-1.3-1.8-3.2-2.6-5.7-2.6c-3.2,0-5.3,1.4-6.4,4.2v0.2h0.9c0.2-0.4,0.4-0.7,0.6-1.1
		c1.1-1.6,2.8-2.4,4.9-2.4c2.2,0,3.8,0.8,5,2.4c1,1.4,1.5,3.3,1.5,5.5h1C68.4,15.3,67.8,13.3,66.6,11.7z"/>
	<rect x="39.6" y="0.4" class="st2" width="1" height="26.2"/>
	<g>
		<path class="st2" d="M57.6,66.5c-0.2-0.1-0.4-0.3-0.5-0.5c-0.1-0.2-0.2-0.5-0.2-0.8c0-0.3,0.1-0.6,0.2-0.8
			c0.1-0.2,0.3-0.4,0.5-0.5c0.2-0.1,0.5-0.2,0.8-0.2c0.2,0,0.4,0,0.6,0.1s0.3,0.2,0.4,0.3l-0.2,0.3C59,64.1,58.9,64,58.8,64
			c-0.1-0.1-0.3-0.1-0.4-0.1c-0.3,0-0.6,0.1-0.7,0.3c-0.2,0.2-0.3,0.5-0.3,0.9c0,0.4,0.1,0.7,0.3,0.9c0.2,0.2,0.4,0.3,0.7,0.3
			c0.2,0,0.3,0,0.4-0.1c0.1-0.1,0.3-0.1,0.4-0.3l0.2,0.3c-0.1,0.1-0.3,0.2-0.4,0.3c-0.2,0.1-0.4,0.1-0.6,0.1
			C58,66.7,57.8,66.6,57.6,66.5z"/>
		<path class="st2" d="M60.4,66.5c-0.2-0.1-0.4-0.3-0.5-0.5c-0.1-0.2-0.2-0.5-0.2-0.8c0-0.3,0.1-0.6,0.2-0.8
			c0.1-0.2,0.3-0.4,0.5-0.5s0.5-0.2,0.7-0.2c0.3,0,0.5,0.1,0.7,0.2c0.2,0.1,0.4,0.3,0.5,0.5c0.1,0.2,0.2,0.5,0.2,0.8
			c0,0.3-0.1,0.6-0.2,0.8c-0.1,0.2-0.3,0.4-0.5,0.5c-0.2,0.1-0.5,0.2-0.7,0.2S60.6,66.6,60.4,66.5z M61.8,66
			c0.2-0.2,0.2-0.5,0.2-0.9c0-0.4-0.1-0.7-0.2-0.9c-0.2-0.2-0.4-0.3-0.7-0.3s-0.5,0.1-0.7,0.3c-0.2,0.2-0.2,0.5-0.2,0.9
			c0,0.4,0.1,0.7,0.2,0.9c0.2,0.2,0.4,0.3,0.7,0.3C61.4,66.3,61.6,66.2,61.8,66z"/>
		<path class="st2" d="M65.6,63.6H66v3.1h-0.4v-2.1l-0.9,2.1h-0.3l-0.9-2.1l0,2.1h-0.4v-3.1h0.3l1.1,2.5L65.6,63.6z"/>
		<path class="st2" d="M66.7,63.6h1.2c0.3,0,0.6,0.1,0.7,0.2c0.2,0.2,0.3,0.4,0.3,0.6s-0.1,0.5-0.3,0.6s-0.4,0.2-0.7,0.2h-0.8v1.3
			h-0.4V63.6z M67.9,65c0.2,0,0.4,0,0.5-0.1c0.1-0.1,0.2-0.2,0.2-0.4c0-0.2-0.1-0.3-0.2-0.4c-0.1-0.1-0.3-0.1-0.5-0.1h-0.8v1H67.9z"
			/>
		<path class="st2" d="M71.8,66.6h-0.5l-0.4-1c0-0.1-0.1-0.2-0.2-0.2c-0.1,0-0.2-0.1-0.3-0.1h-0.7v1.3h-0.4v-3.1h1.2
			c0.3,0,0.6,0.1,0.8,0.2s0.3,0.4,0.3,0.6c0,0.2-0.1,0.4-0.2,0.5s-0.3,0.2-0.4,0.3c0.2,0,0.3,0.2,0.4,0.4L71.8,66.6z M70.6,65
			c0.2,0,0.4,0,0.5-0.1c0.1-0.1,0.2-0.2,0.2-0.4c0-0.2-0.1-0.3-0.2-0.4c-0.1-0.1-0.3-0.1-0.5-0.1h-0.8v1H70.6z"/>
		<path class="st2" d="M72.4,66.6v-3.1h1.9v0.4h-1.5v1h1.4v0.4h-1.4v1h1.5v0.4H72.4z"/>
		<path class="st2" d="M76.9,63.6h0.4v3.1H77l-1.7-2.3v2.3h-0.4v-3.1h0.3l1.7,2.3V63.6z"/>
		<path class="st2" d="M78,63.6h1c0.5,0,0.9,0.1,1.1,0.4c0.3,0.3,0.4,0.6,0.4,1.1c0,0.5-0.1,0.9-0.4,1.1c-0.3,0.3-0.6,0.4-1.1,0.4
			h-1V63.6z M79,66.3c0.7,0,1.1-0.4,1.1-1.2c0-0.8-0.4-1.2-1.1-1.2h-0.6v2.3H79z"/>
		<path class="st2" d="M83.5,66.6h-0.5l-0.4-1c0-0.1-0.1-0.2-0.2-0.2c-0.1,0-0.2-0.1-0.3-0.1h-0.7v1.3h-0.4v-3.1h1.2
			c0.3,0,0.6,0.1,0.8,0.2s0.3,0.4,0.3,0.6c0,0.2-0.1,0.4-0.2,0.5s-0.3,0.2-0.4,0.3c0.2,0,0.3,0.2,0.4,0.4L83.5,66.6z M82.3,65
			c0.2,0,0.4,0,0.5-0.1c0.1-0.1,0.2-0.2,0.2-0.4c0-0.2-0.1-0.3-0.2-0.4c-0.1-0.1-0.3-0.1-0.5-0.1h-0.8v1H82.3z"/>
		<path class="st2" d="M84.1,66.6v-3.1H86v0.4h-1.5v1h1.4v0.4h-1.4v1H86v0.4H84.1z"/>
		<path class="st2" d="M88,66.6v-3.1h0.2v3.1H88z"/>
		<path class="st2" d="M90.6,66.5c-0.2-0.1-0.4-0.3-0.5-0.5c-0.1-0.2-0.2-0.5-0.2-0.8c0-0.3,0.1-0.6,0.2-0.8
			c0.1-0.2,0.3-0.4,0.5-0.5c0.2-0.1,0.5-0.2,0.8-0.2c0.2,0,0.4,0,0.6,0.1s0.3,0.2,0.4,0.3l-0.2,0.3c-0.1-0.1-0.3-0.2-0.4-0.3
			c-0.1-0.1-0.3-0.1-0.4-0.1c-0.3,0-0.6,0.1-0.7,0.3c-0.2,0.2-0.3,0.5-0.3,0.9c0,0.4,0.1,0.7,0.3,0.9c0.2,0.2,0.4,0.3,0.7,0.3
			c0.2,0,0.3,0,0.4-0.1c0.1-0.1,0.3-0.1,0.4-0.3l0.2,0.3c-0.1,0.1-0.3,0.2-0.4,0.3c-0.2,0.1-0.4,0.1-0.6,0.1
			C91.1,66.7,90.8,66.6,90.6,66.5z"/>
		<path class="st2" d="M93.4,66.5c-0.2-0.1-0.4-0.3-0.5-0.5c-0.1-0.2-0.2-0.5-0.2-0.8c0-0.3,0.1-0.6,0.2-0.8
			c0.1-0.2,0.3-0.4,0.5-0.5s0.5-0.2,0.7-0.2c0.3,0,0.5,0.1,0.7,0.2c0.2,0.1,0.4,0.3,0.5,0.5c0.1,0.2,0.2,0.5,0.2,0.8
			c0,0.3-0.1,0.6-0.2,0.8c-0.1,0.2-0.3,0.4-0.5,0.5c-0.2,0.1-0.5,0.2-0.7,0.2S93.6,66.6,93.4,66.5z M94.8,66
			c0.2-0.2,0.2-0.5,0.2-0.9c0-0.4-0.1-0.7-0.2-0.9c-0.2-0.2-0.4-0.3-0.7-0.3s-0.5,0.1-0.7,0.3c-0.2,0.2-0.2,0.5-0.2,0.9
			c0,0.4,0.1,0.7,0.2,0.9c0.2,0.2,0.4,0.3,0.7,0.3C94.4,66.3,94.7,66.2,94.8,66z"/>
		<path class="st2" d="M98.2,63.6h0.4v3.1h-0.3l-1.7-2.3v2.3h-0.4v-3.1h0.3l1.7,2.3V63.6z"/>
		<path class="st2" d="M101.3,63.6h0.4v3.1h-0.3l-1.7-2.3v2.3h-0.4v-3.1h0.3l1.7,2.3V63.6z"/>
		<path class="st2" d="M104.7,66.6l-0.3-0.8h-1.5l-0.3,0.8h-0.4l1.3-3.1h0.4l1.3,3.1H104.7z M103,65.5h1.2l-0.6-1.5L103,65.5z"/>
		<path class="st2" d="M105.5,66.6v-3.1h0.4v3.1H105.5z"/>
		<path class="st2" d="M107.4,66.6v-2.7h-1v-0.4h2.5v0.4h-1v2.7H107.4z"/>
		<path class="st2" d="M111.6,66.6h-0.5l-0.4-1c0-0.1-0.1-0.2-0.2-0.2c-0.1,0-0.2-0.1-0.3-0.1h-0.7v1.3h-0.4v-3.1h1.2
			c0.3,0,0.6,0.1,0.8,0.2s0.3,0.4,0.3,0.6c0,0.2-0.1,0.4-0.2,0.5s-0.3,0.2-0.4,0.3c0.2,0,0.3,0.2,0.4,0.4L111.6,66.6z M110.4,65
			c0.2,0,0.4,0,0.5-0.1c0.1-0.1,0.2-0.2,0.2-0.4c0-0.2-0.1-0.3-0.2-0.4c-0.1-0.1-0.3-0.1-0.5-0.1h-0.8v1H110.4z"/>
		<path class="st2" d="M112.2,66.6v-3.1h1.9v0.4h-1.5v1h1.4v0.4h-1.4v1h1.5v0.4H112.2z"/>
		<path class="st2" d="M116.1,66.6v-3.1h0.2v3.1H116.1z"/>
		<path class="st2" d="M120.4,66.6l-0.3-0.8h-1.5l-0.3,0.8h-0.4l1.3-3.1h0.4l1.3,3.1H120.4z M118.7,65.5h1.2l-0.6-1.5L118.7,65.5z"
			/>
		<path class="st2" d="M123.6,65v1.5c-0.1,0.1-0.3,0.1-0.5,0.2c-0.2,0-0.4,0.1-0.6,0.1c-0.3,0-0.6-0.1-0.8-0.2
			c-0.2-0.1-0.4-0.3-0.5-0.5c-0.1-0.2-0.2-0.5-0.2-0.8c0-0.3,0.1-0.6,0.2-0.8c0.1-0.2,0.3-0.4,0.5-0.5c0.2-0.1,0.5-0.2,0.8-0.2
			c0.2,0,0.4,0,0.6,0.1s0.3,0.2,0.5,0.3l-0.2,0.3c-0.1-0.1-0.3-0.2-0.4-0.3c-0.1-0.1-0.3-0.1-0.5-0.1c-0.3,0-0.6,0.1-0.7,0.3
			c-0.2,0.2-0.3,0.5-0.3,0.9c0,0.4,0.1,0.7,0.3,0.9c0.2,0.2,0.4,0.3,0.8,0.3c0.2,0,0.4,0,0.7-0.1v-0.9h-0.7V65H123.6z"/>
		<path class="st2" d="M124.2,66.6v-3.1h0.4v3.1H124.2z"/>
		<path class="st2" d="M127.8,66.6h-0.5l-0.4-1c0-0.1-0.1-0.2-0.2-0.2c-0.1,0-0.2-0.1-0.3-0.1h-0.7v1.3h-0.4v-3.1h1.2
			c0.3,0,0.6,0.1,0.8,0.2s0.3,0.4,0.3,0.6c0,0.2-0.1,0.4-0.2,0.5s-0.3,0.2-0.4,0.3c0.2,0,0.3,0.2,0.4,0.4L127.8,66.6z M126.5,65
			c0.2,0,0.4,0,0.5-0.1c0.1-0.1,0.2-0.2,0.2-0.4c0-0.2-0.1-0.3-0.2-0.4c-0.1-0.1-0.3-0.1-0.5-0.1h-0.8v1H126.5z"/>
	</g>
</g>
</svg>
